<svg width="35" height="23" viewBox="0 0 35 23" fill="none" xmlns="http://www.w3.org/2000/svg">
<path fill-rule="evenodd" clip-rule="evenodd" d="M0 11.2516C0 10.9201 0.131696 10.6021 0.366116 10.3677C0.600537 10.1333 0.918479 10.0016 1.25 10.0016H30.7325L22.865 2.13658C22.6303 1.90186 22.4984 1.58352 22.4984 1.25158C22.4984 0.91964 22.6303 0.601295 22.865 0.366579C23.0997 0.131862 23.4181 7.82076e-09 23.75 0C24.0819 -7.82076e-09 24.4003 0.131862 24.635 0.366579L34.635 10.3666C34.7514 10.4827 34.8438 10.6206 34.9068 10.7725C34.9698 10.9244 35.0022 11.0872 35.0022 11.2516C35.0022 11.416 34.9698 11.5788 34.9068 11.7307C34.8438 11.8825 34.7514 12.0205 34.635 12.1366L24.635 22.1366C24.4003 22.3713 24.0819 22.5032 23.75 22.5032C23.4181 22.5032 23.0997 22.3713 22.865 22.1366C22.6303 21.9019 22.4984 21.5835 22.4984 21.2516C22.4984 20.9196 22.6303 20.6013 22.865 20.3666L30.7325 12.5016H1.25C0.918479 12.5016 0.600537 12.3699 0.366116 12.1355C0.131696 11.901 0 11.5831 0 11.2516Z" fill="white"/>
</svg>
